<svg viewBox="0 0 61 85" fill="none" xmlns="http://www.w3.org/2000/svg">
<g filter="url(#filter0_di_205_37)">
<path d="M23.3933 77V59.0901L15.4695 73.0028H14.1129L6.15823 59.0901V77H4V55H6.2199L14.7603 70.0592L23.3624 55H25.5515V77H23.3933Z" fill="white"/>
<path d="M31.0381 77V55H33.1963V77H31.0381Z" fill="white"/>
<path d="M40.8441 58.9972V77H38.6859V55H40.4741L54.8418 73.3437V55.031H57V77H54.9959L40.8441 58.9972Z" fill="white"/>
<path d="M11 49C11 46.4699 11.1936 44.1928 11.5809 42.1687C11.9682 40.1446 12.6321 38.261 13.5726 36.5181C14.5685 34.7751 15.8963 33.1446 17.556 31.6265C19.2711 30.0522 21.4288 28.5341 24.029 27.0723C26.2974 25.8353 28.2891 24.7671 30.0041 23.8675C31.7192 22.9116 33.1577 22.0402 34.3195 21.253C35.5367 20.4659 36.4495 19.6787 37.0581 18.8916C37.6667 18.0482 37.971 17.0924 37.971 16.0241C37.971 14.8996 37.6667 13.8876 37.0581 12.988C36.4495 12.0321 35.592 11.2731 34.4855 10.7108C33.379 10.1486 31.9958 9.86747 30.3361 9.86747C29.0083 9.86747 27.7635 10.0361 26.6017 10.3735C25.4952 10.7108 24.444 11.1888 23.4481 11.8072C22.5076 12.4257 21.6224 13.1285 20.7925 13.9157C19.9627 14.6466 19.2158 15.4337 18.5519 16.2771L11.4979 8.01205C12.2725 7.2249 13.296 6.38153 14.5685 5.48193C15.8963 4.5261 17.4454 3.65462 19.2158 2.86747C21.0415 2.0241 23.0332 1.3494 25.1909 0.843373C27.4039 0.281124 29.7552 0 32.2448 0C36.0069 0 39.2158 0.618474 41.8714 1.85542C44.527 3.03614 46.5463 4.69478 47.9295 6.83133C49.3679 8.96787 50.0871 11.4699 50.0871 14.3373C50.0871 16.3052 49.7275 18.0482 49.0083 19.5663C48.2891 21.0843 47.3762 22.4337 46.2697 23.6145C45.1632 24.739 43.9461 25.751 42.6183 26.6506C41.3458 27.5502 40.101 28.3374 38.8838 29.012C37.1687 29.9116 35.6196 30.755 34.2365 31.5422C32.8534 32.2731 31.6362 33.0321 30.5851 33.8193C29.5339 34.5502 28.5934 35.3092 27.7635 36.0964C26.9889 36.8835 26.2974 37.7831 25.6888 38.7952H51V49H11Z" fill="#F7BA75"/>
</g>
<defs>
<filter id="filter0_di_205_37" x="0" y="0" width="61" height="85" filterUnits="userSpaceOnUse" color-interpolation-filters="sRGB">
<feFlood flood-opacity="0" result="BackgroundImageFix"/>
<feColorMatrix in="SourceAlpha" type="matrix" values="0 0 0 0 0 0 0 0 0 0 0 0 0 0 0 0 0 0 127 0" result="hardAlpha"/>
<feOffset dy="4"/>
<feGaussianBlur stdDeviation="2"/>
<feComposite in2="hardAlpha" operator="out"/>
<feColorMatrix type="matrix" values="0 0 0 0 0 0 0 0 0 0 0 0 0 0 0 0 0 0 0.25 0"/>
<feBlend mode="normal" in2="BackgroundImageFix" result="effect1_dropShadow_205_37"/>
<feBlend mode="normal" in="SourceGraphic" in2="effect1_dropShadow_205_37" result="shape"/>
<feColorMatrix in="SourceAlpha" type="matrix" values="0 0 0 0 0 0 0 0 0 0 0 0 0 0 0 0 0 0 127 0" result="hardAlpha"/>
<feOffset dy="4"/>
<feGaussianBlur stdDeviation="2"/>
<feComposite in2="hardAlpha" operator="arithmetic" k2="-1" k3="1"/>
<feColorMatrix type="matrix" values="0 0 0 0 0 0 0 0 0 0 0 0 0 0 0 0 0 0 0.25 0"/>
<feBlend mode="normal" in2="shape" result="effect2_innerShadow_205_37"/>
</filter>
</defs>
</svg>
