<svg viewBox="0 0 88 90" fill="none" xmlns="http://www.w3.org/2000/svg">
<g filter="url(#filter0_di_205_24)">
<path d="M29.799 26.2016C31.8454 26.5403 33.6238 27.3145 35.1342 28.5242C36.6446 29.6855 37.814 31.1855 38.6423 33.0242C39.5193 34.8629 39.9578 36.8952 39.9578 39.121C39.9578 42.121 39.1782 44.7339 37.6191 46.9597C36.0599 49.1855 33.843 50.9032 30.9683 52.1129C28.1424 53.371 24.8048 54 20.9557 54C17.2527 54 13.9639 53.3952 11.0892 52.1855C8.26329 51.0242 5.90021 49.3065 4 47.0323L9.55445 40.1371C10.8213 41.6855 12.3317 42.8952 14.0857 43.7661C15.8885 44.6855 18.081 45.1452 20.6634 45.1452C23.6355 45.1452 25.9011 44.5403 27.4603 43.3306C29.0194 42.1694 29.799 40.4032 29.799 38.0323C29.799 35.5161 28.8976 33.5806 27.0948 32.2258C25.2921 30.871 22.5636 30.1935 18.9093 30.1935H16.8629V22.9355H19.1286C22.1007 22.9355 24.4151 22.2581 26.0716 20.9032C27.777 19.5484 28.6296 17.8548 28.6296 15.8226C28.6296 14.5161 28.3129 13.4274 27.6795 12.5564C27.0461 11.6855 26.1691 11.0323 25.0485 10.5968C23.9765 10.1613 22.7097 9.94355 21.248 9.94355C19.0555 9.94355 17.0578 10.4516 15.2551 11.4677C13.4523 12.4839 11.9906 13.9113 10.87 15.75L4.73085 8.92742C5.75404 7.42742 7.14265 6.14516 8.89669 5.08064C10.6995 3.96774 12.7458 3.09677 15.0358 2.46774C17.3745 1.83871 19.8107 1.52419 22.3443 1.52419C25.6575 1.52419 28.5565 2.05645 31.0414 3.12097C33.575 4.18548 35.5483 5.68548 36.9613 7.62097C38.3743 9.55645 39.0808 11.8064 39.0808 14.371C39.0808 16.2581 38.691 18.0484 37.9114 19.7419C37.1318 21.4355 36.0356 22.8629 34.6226 24.0242C33.2583 25.1371 31.6505 25.8629 29.799 26.2016Z" fill="#F7BA75"/>
<path d="M84 22.0645C84 26.3226 83.1717 30.121 81.5151 33.4597C79.9072 36.75 77.666 39.3387 74.7913 41.2258C71.9653 43.1129 68.7496 44.0564 65.1441 44.0564C61.5386 44.0564 58.2985 43.1129 55.4238 41.2258C52.5978 39.3387 50.3566 36.75 48.7 33.4597C47.0921 30.121 46.2882 26.3226 46.2882 22.0645C46.2882 17.8065 47.0921 14.0323 48.7 10.7419C50.3566 7.40322 52.5978 4.79032 55.4238 2.90322C58.2985 0.967741 61.5386 0 65.1441 0C68.7496 0 71.9653 0.967741 74.7913 2.90322C77.666 4.79032 79.9072 7.40322 81.5151 10.7419C83.1717 14.0323 84 17.8065 84 22.0645ZM74.1335 22.0645C74.1335 19.4516 73.7438 17.1774 72.9642 15.2419C72.2333 13.2581 71.1858 11.7097 69.8215 10.5968C68.4573 9.48387 66.8981 8.92742 65.1441 8.92742C63.3413 8.92742 61.7578 9.48387 60.3936 10.5968C59.0293 11.7097 57.9574 13.2581 57.1778 15.2419C56.447 17.1774 56.0816 19.4516 56.0816 22.0645C56.0816 24.6774 56.447 26.9516 57.1778 28.8871C57.9574 30.8226 59.0293 32.3468 60.3936 33.4597C61.7578 34.5726 63.3413 35.129 65.1441 35.129C66.8981 35.129 68.4329 34.5726 69.7484 33.4597C71.1127 32.3468 72.1846 30.8226 72.9642 28.8871C73.7438 26.9032 74.1335 24.629 74.1335 22.0645Z" fill="#F7BA75"/>
<path d="M20.5699 64.2108C20.2612 63.865 19.9011 63.5599 19.4895 63.2954C19.0779 63.0106 18.6149 62.7665 18.1004 62.5631C17.5859 62.3597 17.0303 62.197 16.4335 62.0749C15.8573 61.9528 15.2399 61.8918 14.5814 61.8918C12.6676 61.8918 11.2579 62.258 10.3524 62.9903C9.46755 63.7023 9.0251 64.6787 9.0251 65.9196C9.0251 66.7739 9.23089 67.4452 9.64247 67.9334C10.0746 68.4216 10.7434 68.8183 11.6489 69.1234C12.5544 69.4286 13.7068 69.7439 15.1062 70.0694C16.6702 70.3948 18.0181 70.7813 19.1499 71.2289C20.2818 71.6764 21.1564 72.2866 21.7737 73.0596C22.3911 73.8123 22.6998 74.8396 22.6998 76.1415C22.6998 77.1382 22.5043 78.0028 22.1133 78.7351C21.7223 79.4674 21.1769 80.0777 20.4773 80.5659C19.7776 81.0541 18.9441 81.4202 17.9769 81.6644C17.0097 81.8881 15.9499 82 14.7975 82C13.6656 82 12.575 81.8881 11.5254 81.6644C10.4965 81.4202 9.51899 81.0744 8.59294 80.6269C7.66689 80.159 6.80258 79.5691 6 78.8571L7.08039 77.1179C7.47139 77.5247 7.93442 77.9112 8.46947 78.2774C9.0251 78.6232 9.63218 78.9385 10.2907 79.2233C10.9698 79.5081 11.6901 79.7319 12.4515 79.8946C13.2335 80.037 14.0361 80.1082 14.8592 80.1082C16.6084 80.1082 17.9666 79.7929 18.9338 79.1623C19.9216 78.5317 20.4155 77.5959 20.4155 76.3551C20.4155 75.46 20.1686 74.748 19.6747 74.2191C19.1808 73.6699 18.44 73.2224 17.4522 72.8766C16.4644 72.5307 15.2502 72.1951 13.8097 71.8696C12.2869 71.5238 11.0007 71.1373 9.95115 70.7101C8.90163 70.2829 8.10934 69.7235 7.57429 69.0319C7.05981 68.3199 6.80258 67.3842 6.80258 66.2247C6.80258 64.8821 7.13184 63.7531 7.79037 62.8377C8.46947 61.902 9.39552 61.2002 10.5685 60.7323C11.7415 60.2441 13.0894 60 14.6123 60C15.5795 60 16.4747 60.1017 17.2978 60.3051C18.1416 60.4882 18.9133 60.7628 19.613 61.129C20.3332 61.4951 21.002 61.9528 21.6194 62.5021L20.5699 64.2108Z" fill="white"/>
<path d="M41.2338 79.9251V81.8169H26.5096V60.1526H40.956V62.0444H28.6704V69.8558H39.3817V71.656H28.6704V79.9251H41.2338Z" fill="white"/>
<path d="M43.4472 70.8322C43.4472 69.5099 43.6736 68.2182 44.1263 66.957C44.5996 65.6754 45.2787 64.516 46.1636 63.4785C47.0485 62.4207 48.1392 61.5867 49.4356 60.9764C50.7321 60.3458 52.2035 60.0305 53.8498 60.0305C55.8048 60.0305 57.4717 60.478 58.8505 61.3731C60.2499 62.2478 61.2788 63.3768 61.9373 64.7601L60.2396 65.7975C59.7663 64.8414 59.1695 64.0888 58.4492 63.5395C57.729 62.9699 56.9572 62.5631 56.1341 62.319C55.3315 62.0749 54.5289 61.9528 53.7264 61.9528C52.4093 61.9528 51.2466 62.2173 50.2382 62.7462C49.2299 63.2547 48.3758 63.9464 47.6762 64.8211C46.9971 65.6755 46.4826 66.6417 46.1327 67.7198C45.7829 68.7776 45.608 69.8558 45.608 70.9542C45.608 72.1544 45.8138 73.3037 46.2253 74.4022C46.6369 75.5007 47.2131 76.4771 47.954 77.3315C48.6948 78.1655 49.5591 78.8368 50.5469 79.3454C51.5553 79.8336 52.646 80.0777 53.819 80.0777C54.6421 80.0777 55.4859 79.9353 56.3502 79.6505C57.2145 79.3657 58.0171 78.9283 58.7579 78.3384C59.5193 77.7485 60.1264 76.9857 60.5791 76.0499L62.3695 76.9653C61.9168 78.0435 61.2171 78.9589 60.2704 79.7115C59.3238 80.4642 58.264 81.0337 57.091 81.4202C55.9386 81.8068 54.8067 82 53.6955 82C52.1932 82 50.8144 81.6847 49.5591 81.0541C48.3038 80.4031 47.2131 79.5488 46.2871 78.491C45.3816 77.4128 44.6819 76.2127 44.188 74.8904C43.6941 73.5479 43.4472 72.1951 43.4472 70.8322Z" fill="white"/>
<path d="M78.8701 64.2108C78.5614 63.865 78.2013 63.5599 77.7897 63.2954C77.3781 63.0106 76.9151 62.7665 76.4006 62.5631C75.8861 62.3597 75.3305 62.197 74.7337 62.0749C74.1575 61.9528 73.5401 61.8918 72.8816 61.8918C70.9678 61.8918 69.5581 62.258 68.6527 62.9903C67.7678 63.7023 67.3253 64.6787 67.3253 65.9196C67.3253 66.7739 67.5311 67.4452 67.9427 67.9334C68.3748 68.4216 69.0437 68.8183 69.9491 69.1234C70.8546 69.4286 72.007 69.7439 73.4064 70.0694C74.9704 70.3948 76.3183 70.7813 77.4501 71.2289C78.582 71.6764 79.4566 72.2866 80.074 73.0596C80.6913 73.8123 81 74.8396 81 76.1415C81 77.1382 80.8045 78.0028 80.4135 78.7351C80.0225 79.4674 79.4772 80.0777 78.7775 80.5659C78.0778 81.0541 77.2444 81.4202 76.2771 81.6644C75.3099 81.8881 74.2501 82 73.0977 82C71.9659 82 70.8752 81.8881 69.8257 81.6644C68.7967 81.4202 67.8192 81.0744 66.8932 80.6269C65.9671 80.159 65.1028 79.5691 64.3002 78.8571L65.3806 77.1179C65.7716 77.5247 66.2346 77.9112 66.7697 78.2774C67.3253 78.6232 67.9324 78.9385 68.5909 79.2233C69.27 79.5081 69.9903 79.7319 70.7517 79.8946C71.5337 80.037 72.3363 80.1082 73.1594 80.1082C74.9086 80.1082 76.2669 79.7929 77.2341 79.1623C78.2218 78.5317 78.7157 77.5959 78.7157 76.3551C78.7157 75.46 78.4688 74.748 77.9749 74.2191C77.481 73.6699 76.7402 73.2224 75.7524 72.8766C74.7646 72.5307 73.5504 72.1951 72.1099 71.8696C70.5871 71.5238 69.3009 71.1373 68.2514 70.7101C67.2018 70.2829 66.4096 69.7235 65.8745 69.0319C65.36 68.3199 65.1028 67.3842 65.1028 66.2247C65.1028 64.8821 65.4321 63.7531 66.0906 62.8377C66.7697 61.902 67.6957 61.2002 68.8687 60.7323C70.0417 60.2441 71.3897 60 72.9125 60C73.8797 60 74.7749 60.1017 75.598 60.3051C76.4418 60.4882 77.2135 60.7628 77.9132 61.129C78.6334 61.4951 79.3022 61.9528 79.9196 62.5021L78.8701 64.2108Z" fill="white"/>
</g>
<defs>
<filter id="filter0_di_205_24" x="0" y="0" width="88" height="90" filterUnits="userSpaceOnUse" color-interpolation-filters="sRGB">
<feFlood flood-opacity="0" result="BackgroundImageFix"/>
<feColorMatrix in="SourceAlpha" type="matrix" values="0 0 0 0 0 0 0 0 0 0 0 0 0 0 0 0 0 0 127 0" result="hardAlpha"/>
<feOffset dy="4"/>
<feGaussianBlur stdDeviation="2"/>
<feComposite in2="hardAlpha" operator="out"/>
<feColorMatrix type="matrix" values="0 0 0 0 0 0 0 0 0 0 0 0 0 0 0 0 0 0 0.25 0"/>
<feBlend mode="normal" in2="BackgroundImageFix" result="effect1_dropShadow_205_24"/>
<feBlend mode="normal" in="SourceGraphic" in2="effect1_dropShadow_205_24" result="shape"/>
<feColorMatrix in="SourceAlpha" type="matrix" values="0 0 0 0 0 0 0 0 0 0 0 0 0 0 0 0 0 0 127 0" result="hardAlpha"/>
<feOffset dy="4"/>
<feGaussianBlur stdDeviation="2"/>
<feComposite in2="hardAlpha" operator="arithmetic" k2="-1" k3="1"/>
<feColorMatrix type="matrix" values="0 0 0 0 0 0 0 0 0 0 0 0 0 0 0 0 0 0 0.25 0"/>
<feBlend mode="normal" in2="shape" result="effect2_innerShadow_205_24"/>
</filter>
</defs>
</svg>
