<svg viewBox="0 0 34 110" fill="none" xmlns="http://www.w3.org/2000/svg">
<path fill-rule="evenodd" clip-rule="evenodd" d="M2.36823 0.444809C1.36322 0.947418 0.599384 1.82632 0.24421 2.88882C-0.110963 3.95131 -0.0284874 5.11067 0.473551 6.11271L25.0025 54.9836L0.465051 103.846C0.209998 104.343 0.0562958 104.886 0.0128039 105.442C-0.0306881 105.999 0.0368908 106.558 0.211645 107.089C0.3864 107.619 0.664875 108.11 1.03101 108.533C1.39715 108.955 1.8437 109.302 2.34494 109.552C2.84617 109.802 3.39217 109.951 3.95145 109.99C4.51072 110.029 5.07222 109.957 5.60356 109.779C6.13491 109.601 6.6256 109.32 7.04733 108.952C7.46906 108.584 7.8135 108.137 8.06079 107.636L33.5498 56.8785C33.8459 56.2903 34 55.6415 34 54.9836C34 54.3257 33.8459 53.6768 33.5498 53.0886L8.06079 2.33129C7.55599 1.33063 6.67326 0.570099 5.60615 0.216463C4.53904 -0.137172 3.37463 -0.0550554 2.36823 0.444809V0.444809Z" fill="#898989" fill-opacity="0.5"/>
</svg>
