<svg width="54" height="63" viewBox="0 0 54 63" fill="none" xmlns="http://www.w3.org/2000/svg">
<g filter="url(#filter0_di_204_18)">
<path d="M4.51318 55V42.93H8.61018C9.89085 42.93 10.9562 43.202 11.8062 43.746C12.6675 44.2787 13.3135 45.004 13.7442 45.922C14.1749 46.8287 14.3902 47.8373 14.3902 48.948C14.3902 50.172 14.1522 51.2373 13.6762 52.144C13.2115 53.0507 12.5429 53.7533 11.6702 54.252C10.8089 54.7507 9.78885 55 8.61018 55H4.51318ZM13.2002 48.948C13.2002 47.9847 13.0189 47.129 12.6562 46.381C12.3049 45.633 11.7892 45.0493 11.1092 44.63C10.4292 44.1993 9.59618 43.984 8.61018 43.984H5.70318V53.946H8.61018C9.60752 53.946 10.4462 53.725 11.1262 53.283C11.8062 52.841 12.3219 52.246 12.6732 51.498C13.0245 50.7387 13.2002 49.8887 13.2002 48.948Z" fill="white"/>
<path d="M19.9739 42.93H20.9769L25.9919 55H24.7339L23.1699 51.226H17.7469L16.1999 55H14.9249L19.9739 42.93ZM22.8979 50.291L20.4669 44.324L18.0019 50.291H22.8979Z" fill="white"/>
<path d="M27.7222 55V42.93H28.9122V55H27.7222Z" fill="white"/>
<path d="M31.939 55V42.93H33.129V53.946H40.099V55H31.939Z" fill="white"/>
<path d="M40.0089 42.93L43.9529 49.424L47.9309 42.93H49.2229L44.5479 50.512V55H43.3579V50.478L38.6999 42.93H40.0089Z" fill="white"/>
<path d="M21.5716 20.25H18.7145C18.243 20.25 17.8573 19.8703 17.8573 19.4062V16.5938C17.8573 16.1297 18.243 15.75 18.7145 15.75H21.5716C22.043 15.75 22.4288 16.1297 22.4288 16.5938V19.4062C22.4288 19.8703 22.043 20.25 21.5716 20.25ZM29.2859 19.4062V16.5938C29.2859 16.1297 28.9002 15.75 28.4288 15.75H25.5716C25.1002 15.75 24.7145 16.1297 24.7145 16.5938V19.4062C24.7145 19.8703 25.1002 20.25 25.5716 20.25H28.4288C28.9002 20.25 29.2859 19.8703 29.2859 19.4062ZM36.143 19.4062V16.5938C36.143 16.1297 35.7573 15.75 35.2859 15.75H32.4288C31.9573 15.75 31.5716 16.1297 31.5716 16.5938V19.4062C31.5716 19.8703 31.9573 20.25 32.4288 20.25H35.2859C35.7573 20.25 36.143 19.8703 36.143 19.4062ZM29.2859 26.1562V23.3438C29.2859 22.8797 28.9002 22.5 28.4288 22.5H25.5716C25.1002 22.5 24.7145 22.8797 24.7145 23.3438V26.1562C24.7145 26.6203 25.1002 27 25.5716 27H28.4288C28.9002 27 29.2859 26.6203 29.2859 26.1562ZM22.4288 26.1562V23.3438C22.4288 22.8797 22.043 22.5 21.5716 22.5H18.7145C18.243 22.5 17.8573 22.8797 17.8573 23.3438V26.1562C17.8573 26.6203 18.243 27 18.7145 27H21.5716C22.043 27 22.4288 26.6203 22.4288 26.1562ZM36.143 26.1562V23.3438C36.143 22.8797 35.7573 22.5 35.2859 22.5H32.4288C31.9573 22.5 31.5716 22.8797 31.5716 23.3438V26.1562C31.5716 26.6203 31.9573 27 32.4288 27H35.2859C35.7573 27 36.143 26.6203 36.143 26.1562ZM43.0002 7.875V32.625C43.0002 34.4883 41.4645 36 39.5716 36H14.4288C12.5359 36 11.0002 34.4883 11.0002 32.625V7.875C11.0002 6.01172 12.5359 4.5 14.4288 4.5H17.8573V0.84375C17.8573 0.379688 18.243 0 18.7145 0H21.5716C22.043 0 22.4288 0.379688 22.4288 0.84375V4.5H31.5716V0.84375C31.5716 0.379688 31.9573 0 32.4288 0H35.2859C35.7573 0 36.143 0.379688 36.143 0.84375V4.5H39.5716C41.4645 4.5 43.0002 6.01172 43.0002 7.875ZM39.5716 32.2031V11.25H14.4288V32.2031C14.4288 32.4352 14.6216 32.625 14.8573 32.625H39.143C39.3788 32.625 39.5716 32.4352 39.5716 32.2031Z" fill="#F7BA75"/>
</g>
<defs>
<filter id="filter0_di_204_18" x="0.513184" y="0" width="52.71" height="63" filterUnits="userSpaceOnUse" color-interpolation-filters="sRGB">
<feFlood flood-opacity="0" result="BackgroundImageFix"/>
<feColorMatrix in="SourceAlpha" type="matrix" values="0 0 0 0 0 0 0 0 0 0 0 0 0 0 0 0 0 0 127 0" result="hardAlpha"/>
<feOffset dy="4"/>
<feGaussianBlur stdDeviation="2"/>
<feComposite in2="hardAlpha" operator="out"/>
<feColorMatrix type="matrix" values="0 0 0 0 0 0 0 0 0 0 0 0 0 0 0 0 0 0 0.25 0"/>
<feBlend mode="normal" in2="BackgroundImageFix" result="effect1_dropShadow_204_18"/>
<feBlend mode="normal" in="SourceGraphic" in2="effect1_dropShadow_204_18" result="shape"/>
<feColorMatrix in="SourceAlpha" type="matrix" values="0 0 0 0 0 0 0 0 0 0 0 0 0 0 0 0 0 0 127 0" result="hardAlpha"/>
<feOffset dy="4"/>
<feGaussianBlur stdDeviation="2"/>
<feComposite in2="hardAlpha" operator="arithmetic" k2="-1" k3="1"/>
<feColorMatrix type="matrix" values="0 0 0 0 0 0 0 0 0 0 0 0 0 0 0 0 0 0 0.25 0"/>
<feBlend mode="normal" in2="shape" result="effect2_innerShadow_204_18"/>
</filter>
</defs>
</svg>
