<svg viewBox="0 0 247 45" fill="none" xmlns="http://www.w3.org/2000/svg">
<g filter="url(#filter0_di_208_62)">
<path d="M4.7 36V0.499998H28.55V6.55H11.6V15.7H25.7V21.3H11.6V36H4.7ZM35.4109 36V0.499998H42.3109V36H35.4109ZM58.6176 13.2V36H51.7176V0.499998H57.2176L75.5676 23.9V0.549997H82.4676V36H76.7176L58.6176 13.2ZM91.8523 36V0.499998H98.7523V36H91.8523ZM129.309 9.8C129.076 9.56667 128.642 9.25 128.009 8.85C127.409 8.45 126.659 8.06667 125.759 7.7C124.892 7.33333 123.942 7.01667 122.909 6.75C121.876 6.45 120.826 6.3 119.759 6.3C117.892 6.3 116.476 6.65 115.509 7.35C114.576 8.05 114.109 9.03333 114.109 10.3C114.109 11.2667 114.409 12.0333 115.009 12.6C115.609 13.1667 116.509 13.65 117.709 14.05C118.909 14.45 120.409 14.8833 122.209 15.35C124.542 15.9167 126.559 16.6167 128.259 17.45C129.992 18.25 131.309 19.3167 132.209 20.65C133.142 21.95 133.609 23.6833 133.609 25.85C133.609 27.75 133.259 29.3833 132.559 30.75C131.859 32.0833 130.892 33.1667 129.659 34C128.426 34.8333 127.026 35.45 125.459 35.85C123.892 36.2167 122.226 36.4 120.459 36.4C118.692 36.4 116.926 36.2167 115.159 35.85C113.392 35.4833 111.692 34.9667 110.059 34.3C108.426 33.6 106.926 32.7667 105.559 31.8L108.609 25.85C108.909 26.15 109.442 26.55 110.209 27.05C110.976 27.5167 111.909 28 113.009 28.5C114.109 28.9667 115.309 29.3667 116.609 29.7C117.909 30.0333 119.226 30.2 120.559 30.2C122.426 30.2 123.842 29.8833 124.809 29.25C125.776 28.6167 126.259 27.7167 126.259 26.55C126.259 25.4833 125.876 24.65 125.109 24.05C124.342 23.45 123.276 22.9333 121.909 22.5C120.542 22.0333 118.926 21.5333 117.059 21C114.826 20.3667 112.959 19.6667 111.459 18.9C109.959 18.1 108.842 17.1 108.109 15.9C107.376 14.7 107.009 13.2 107.009 11.4C107.009 8.96667 107.576 6.93333 108.709 5.3C109.876 3.63333 111.442 2.38333 113.409 1.55C115.376 0.683332 117.559 0.249998 119.959 0.249998C121.626 0.249998 123.192 0.433331 124.659 0.799997C126.159 1.16667 127.559 1.65 128.859 2.25C130.159 2.85 131.326 3.5 132.359 4.2L129.309 9.8ZM170.673 0.499998V36H163.823V20.85H147.723V36H140.823V0.499998H147.723V14.85H163.823V0.499998H170.673ZM204.729 29.95V36H180.079V0.499998H204.279V6.55H186.979V15.1H201.929V20.7H186.979V29.95H204.729ZM212.108 36V0.499998H225.008C228.875 0.499998 232.108 1.3 234.708 2.9C237.308 4.46667 239.258 6.6 240.558 9.3C241.858 11.9667 242.508 14.9333 242.508 18.2C242.508 21.8 241.792 24.9333 240.358 27.6C238.925 30.2667 236.892 32.3333 234.258 33.8C231.658 35.2667 228.575 36 225.008 36H212.108ZM235.558 18.2C235.558 15.9 235.142 13.8833 234.308 12.15C233.475 10.3833 232.275 9.01667 230.708 8.05C229.142 7.05 227.242 6.55 225.008 6.55H219.008V29.95H225.008C227.275 29.95 229.192 29.45 230.758 28.45C232.325 27.4167 233.508 26.0167 234.308 24.25C235.142 22.45 235.558 20.4333 235.558 18.2Z" fill="#F7BA75"/>
</g>
<defs>
<filter id="filter0_di_208_62" x="0.699951" y="0.25" width="245.808" height="44.15" filterUnits="userSpaceOnUse" color-interpolation-filters="sRGB">
<feFlood flood-opacity="0" result="BackgroundImageFix"/>
<feColorMatrix in="SourceAlpha" type="matrix" values="0 0 0 0 0 0 0 0 0 0 0 0 0 0 0 0 0 0 127 0" result="hardAlpha"/>
<feOffset dy="4"/>
<feGaussianBlur stdDeviation="2"/>
<feComposite in2="hardAlpha" operator="out"/>
<feColorMatrix type="matrix" values="0 0 0 0 0 0 0 0 0 0 0 0 0 0 0 0 0 0 0.25 0"/>
<feBlend mode="normal" in2="BackgroundImageFix" result="effect1_dropShadow_208_62"/>
<feBlend mode="normal" in="SourceGraphic" in2="effect1_dropShadow_208_62" result="shape"/>
<feColorMatrix in="SourceAlpha" type="matrix" values="0 0 0 0 0 0 0 0 0 0 0 0 0 0 0 0 0 0 127 0" result="hardAlpha"/>
<feOffset dx="2" dy="2"/>
<feGaussianBlur stdDeviation="2"/>
<feComposite in2="hardAlpha" operator="arithmetic" k2="-1" k3="1"/>
<feColorMatrix type="matrix" values="0 0 0 0 0 0 0 0 0 0 0 0 0 0 0 0 0 0 0.25 0"/>
<feBlend mode="normal" in2="shape" result="effect2_innerShadow_208_62"/>
</filter>
</defs>
</svg>
