<svg width="317" height="59" viewBox="0 0 317 59" fill="none" xmlns="http://www.w3.org/2000/svg">
<g filter="url(#filter0_di_165_287)">
<path d="M4 50.4357V0.352697H25.2024C27.5035 0.352697 29.6167 0.822959 31.542 1.76348C33.4674 2.70401 35.1345 3.97372 36.5433 5.57261C37.999 7.17151 39.1261 8.95851 39.9244 10.9336C40.7227 12.9087 41.1219 14.9308 41.1219 17C41.1219 19.8216 40.4644 22.5021 39.1496 25.0415C37.8347 27.5809 36.0267 29.6501 33.7257 31.249C31.4246 32.8479 28.701 33.6473 25.5546 33.6473H13.7207V50.4357H4ZM13.7207 25.112H24.9911C26.1651 25.112 27.2217 24.7828 28.1609 24.1245C29.1001 23.4661 29.8515 22.5256 30.415 21.3029C30.9785 20.0332 31.2603 18.5989 31.2603 17C31.2603 15.26 30.9316 13.7787 30.2741 12.556C29.6636 11.3333 28.8418 10.4163 27.8087 9.80498C26.8226 9.19364 25.7425 8.88797 24.5685 8.88797H13.7207V25.112Z" fill="#F7BA75"/>
<path d="M66.2893 0.352697H76.1509L94.5358 50.4357H84.5333L79.8843 37.9502H62.4151L57.8365 50.4357H47.8341L66.2893 0.352697ZM78.1233 31.1079L71.2201 10.4398L64.0353 31.1079H78.1233Z" fill="#F7BA75"/>
<path d="M127.682 50.7884C123.69 50.7884 120.285 50.13 117.468 48.8133C114.697 47.4495 112.443 45.592 110.706 43.2407C109.015 40.8893 107.771 38.2324 106.972 35.2697C106.174 32.26 105.775 29.1328 105.775 25.888V0.352697H115.496V25.888C115.496 27.9571 115.683 29.9793 116.059 31.9544C116.482 33.8824 117.163 35.6224 118.102 37.1743C119.041 38.7261 120.285 39.9488 121.835 40.8423C123.385 41.7358 125.31 42.1826 127.611 42.1826C129.959 42.1826 131.908 41.7358 133.458 40.8423C135.054 39.9018 136.299 38.6556 137.191 37.1037C138.13 35.5519 138.811 33.8119 139.234 31.8838C139.656 29.9087 139.868 27.9101 139.868 25.888V0.352697H149.518V25.888C149.518 29.3209 149.095 32.5422 148.25 35.5519C147.452 38.5615 146.16 41.2185 144.376 43.5228C142.638 45.7801 140.384 47.5671 137.614 48.8838C134.843 50.1535 131.532 50.7884 127.682 50.7884Z" fill="#F7BA75"/>
<path d="M197.558 13.473C197.229 13.1438 196.619 12.6971 195.727 12.1328C194.881 11.5685 193.825 11.0277 192.557 10.5104C191.336 9.99308 189.998 9.54633 188.542 9.17012C187.086 8.74689 185.607 8.53527 184.104 8.53527C181.474 8.53527 179.479 9.02905 178.117 10.0166C176.802 11.0041 176.144 12.3914 176.144 14.1784C176.144 15.5422 176.567 16.6238 177.412 17.4232C178.258 18.2227 179.526 18.9046 181.216 19.4689C182.907 20.0332 185.02 20.6445 187.556 21.3029C190.843 22.1023 193.684 23.0899 196.079 24.2656C198.521 25.3942 200.376 26.899 201.644 28.7801C202.959 30.6141 203.616 33.0595 203.616 36.1162C203.616 38.7967 203.123 41.101 202.137 43.029C201.151 44.9101 199.789 46.4384 198.051 47.6141C196.314 48.7898 194.341 49.6598 192.134 50.2241C189.927 50.7414 187.579 51 185.09 51C182.601 51 180.113 50.7414 177.624 50.2241C175.135 49.7068 172.74 48.9779 170.439 48.0373C168.138 47.0498 166.025 45.8741 164.099 44.5104L168.396 36.1162C168.819 36.5394 169.57 37.1037 170.65 37.8091C171.73 38.4675 173.045 39.1494 174.595 39.8548C176.144 40.5131 177.835 41.0775 179.666 41.5477C181.498 42.018 183.353 42.2531 185.231 42.2531C187.861 42.2531 189.857 41.8064 191.219 40.9129C192.58 40.0194 193.261 38.7497 193.261 37.1037C193.261 35.5989 192.721 34.4232 191.641 33.5768C190.561 32.7303 189.058 32.0014 187.133 31.39C185.208 30.7317 182.93 30.0263 180.3 29.2739C177.154 28.3804 174.524 27.3928 172.411 26.3112C170.298 25.1826 168.725 23.7718 167.692 22.0788C166.658 20.3859 166.142 18.2697 166.142 15.7303C166.142 12.2974 166.94 9.42877 168.537 7.12448C170.18 4.77317 172.388 3.00968 175.158 1.83403C177.929 0.611342 181.005 0 184.386 0C186.734 0 188.941 0.258644 191.007 0.775932C193.12 1.29322 195.093 1.9751 196.924 2.82158C198.756 3.66805 200.399 4.58506 201.855 5.57261L197.558 13.473Z" fill="#F7BA75"/>
<path d="M254.141 41.9004V50.4357H219.414V0.352697H253.507V8.88797H229.135V20.9502H250.197V28.8506H229.135V41.9004H254.141Z" fill="#F7BA75"/>
<path d="M270.172 50.4357V0.352697H288.346C293.793 0.352697 298.348 1.48133 302.011 3.73859C305.674 5.94882 308.421 8.95851 310.253 12.7676C312.084 16.5297 313 20.7151 313 25.3237C313 30.4025 311.99 34.823 309.971 38.5851C307.952 42.3472 305.087 45.2628 301.377 47.3319C297.715 49.4011 293.371 50.4357 288.346 50.4357H270.172ZM303.209 25.3237C303.209 22.0788 302.622 19.2337 301.448 16.7884C300.274 14.296 298.583 12.3679 296.376 11.0041C294.169 9.59336 291.492 8.88797 288.346 8.88797H279.893V41.9004H288.346C291.539 41.9004 294.239 41.195 296.447 39.7842C298.654 38.3264 300.321 36.3513 301.448 33.8589C302.622 31.3195 303.209 28.4744 303.209 25.3237Z" fill="#F7BA75"/>
</g>
<defs>
<filter id="filter0_di_165_287" x="0" y="0" width="317" height="59" filterUnits="userSpaceOnUse" color-interpolation-filters="sRGB">
<feFlood flood-opacity="0" result="BackgroundImageFix"/>
<feColorMatrix in="SourceAlpha" type="matrix" values="0 0 0 0 0 0 0 0 0 0 0 0 0 0 0 0 0 0 127 0" result="hardAlpha"/>
<feOffset dy="4"/>
<feGaussianBlur stdDeviation="2"/>
<feComposite in2="hardAlpha" operator="out"/>
<feColorMatrix type="matrix" values="0 0 0 0 0 0 0 0 0 0 0 0 0 0 0 0 0 0 0.25 0"/>
<feBlend mode="normal" in2="BackgroundImageFix" result="effect1_dropShadow_165_287"/>
<feBlend mode="normal" in="SourceGraphic" in2="effect1_dropShadow_165_287" result="shape"/>
<feColorMatrix in="SourceAlpha" type="matrix" values="0 0 0 0 0 0 0 0 0 0 0 0 0 0 0 0 0 0 127 0" result="hardAlpha"/>
<feOffset dx="2" dy="2"/>
<feGaussianBlur stdDeviation="2"/>
<feComposite in2="hardAlpha" operator="arithmetic" k2="-1" k3="1"/>
<feColorMatrix type="matrix" values="0 0 0 0 0 0 0 0 0 0 0 0 0 0 0 0 0 0 0.25 0"/>
<feBlend mode="normal" in2="shape" result="effect2_innerShadow_165_287"/>
</filter>
</defs>
</svg>
