<svg viewBox="0 0 103 21" fill="none" xmlns="http://www.w3.org/2000/svg">
<path d="M14.1095 5.54772C13.9709 5.41217 13.7134 5.22822 13.3372 4.99585C12.9807 4.76349 12.5352 4.5408 12.0005 4.3278C11.4856 4.1148 10.9212 3.93084 10.3074 3.77593C9.69347 3.60166 9.06968 3.51452 8.43599 3.51452C7.32704 3.51452 6.48542 3.71784 5.91114 4.12448C5.35666 4.53112 5.07942 5.10235 5.07942 5.83817C5.07942 6.39972 5.25764 6.84509 5.61409 7.17427C5.97054 7.50346 6.50522 7.78423 7.21812 8.0166C7.93102 8.24896 8.82215 8.50069 9.8915 8.77178C11.2777 9.10097 12.4758 9.50761 13.4857 9.9917C14.5155 10.4564 15.2977 11.0761 15.8323 11.8506C16.3868 12.6058 16.6641 13.6127 16.6641 14.8714C16.6641 15.9751 16.4561 16.9239 16.0403 17.7178C15.6244 18.4924 15.0501 19.1217 14.3174 19.6058C13.5847 20.0899 12.753 20.4481 11.8223 20.6805C10.8915 20.8935 9.9014 21 8.85185 21C7.8023 21 6.75276 20.8935 5.70321 20.6805C4.65366 20.4675 3.64372 20.1674 2.67338 19.7801C1.70304 19.3734 0.811915 18.8893 0 18.3278L1.81196 14.8714C1.99018 15.0456 2.30703 15.278 2.76249 15.5685C3.21795 15.8396 3.77243 16.1203 4.42593 16.4108C5.07942 16.6819 5.79232 16.9142 6.56463 17.1079C7.33694 17.3015 8.11915 17.3983 8.91126 17.3983C10.0202 17.3983 10.8618 17.2144 11.4361 16.8465C12.0104 16.4786 12.2975 15.9557 12.2975 15.278C12.2975 14.6584 12.0698 14.1743 11.6143 13.8257C11.1589 13.4772 10.5252 13.177 9.71327 12.9253C8.90136 12.6542 7.94092 12.3638 6.83197 12.0539C5.50518 11.686 4.39622 11.2794 3.5051 10.834C2.61397 10.3693 1.95058 9.78838 1.51491 9.09129C1.07925 8.39419 0.861422 7.52282 0.861422 6.47718C0.861422 5.06362 1.19807 3.88243 1.87136 2.93361C2.56446 1.96542 3.49519 1.23928 4.66356 0.755187C5.83192 0.251729 7.12901 0 8.55481 0C9.54495 0 10.4757 0.1065 11.347 0.319501C12.2381 0.532503 13.0698 0.813278 13.8422 1.16183C14.6145 1.51037 15.3076 1.88797 15.9215 2.29461L14.1095 5.54772Z" fill="#816452"/>
<path d="M18.4844 10.3112C18.4844 9.05256 18.7121 7.82296 19.1676 6.62241C19.6428 5.40249 20.326 4.29876 21.2172 3.3112C22.1083 2.30429 23.1974 1.51037 24.4846 0.929461C25.7718 0.329184 27.2372 0.0290453 28.8808 0.0290453C30.8215 0.0290453 32.4948 0.445366 33.9008 1.27801C35.3266 2.11065 36.3861 3.19502 37.0792 4.53112L33.9305 6.65145C33.5741 5.8769 33.1087 5.26694 32.5345 4.82158C31.9602 4.35685 31.3463 4.03734 30.6928 3.86307C30.0393 3.66943 29.3957 3.57261 28.762 3.57261C27.7323 3.57261 26.8312 3.77593 26.0589 4.18257C25.3064 4.58921 24.6727 5.12171 24.1579 5.78008C23.643 6.43845 23.2568 7.17427 22.9994 7.98755C22.7618 8.80083 22.643 9.61411 22.643 10.4274C22.643 11.3375 22.7915 12.2185 23.0885 13.0705C23.3856 13.9032 23.8014 14.6487 24.3361 15.3071C24.8906 15.9461 25.5441 16.4592 26.2966 16.8465C27.0689 17.2144 27.9105 17.3983 28.8214 17.3983C29.4749 17.3983 30.1383 17.2918 30.8116 17.0788C31.4849 16.8658 32.1087 16.527 32.683 16.0622C33.2573 15.5975 33.7028 14.9972 34.0197 14.2614L37.3762 16.1494C36.9604 17.1757 36.2772 18.047 35.3266 18.7635C34.3959 19.4799 33.3464 20.0221 32.178 20.39C31.0096 20.758 29.8512 20.9419 28.7026 20.9419C27.1976 20.9419 25.8213 20.6418 24.5737 20.0415C23.3262 19.4219 22.2469 18.6086 21.336 17.6017C20.4448 16.5754 19.7418 15.4329 19.227 14.1743C18.7319 12.8963 18.4844 11.6086 18.4844 10.3112Z" fill="#816452"/>
<path d="M48.8646 20.9129C47.3199 20.9129 45.9139 20.6224 44.6466 20.0415C43.399 19.4606 42.3197 18.6763 41.4088 17.6888C40.5177 16.6819 39.8246 15.5588 39.3295 14.3195C38.8344 13.0609 38.5869 11.7732 38.5869 10.4564C38.5869 9.0816 38.8443 7.77455 39.3592 6.53527C39.8939 5.27663 40.6167 4.16321 41.5276 3.19502C42.4584 2.20747 43.5475 1.43292 44.7951 0.871368C46.0625 0.290456 47.4487 0 48.9537 0C50.4785 0 51.8647 0.300138 53.1123 0.900415C54.3796 1.50069 55.4589 2.30429 56.35 3.3112C57.2411 4.31812 57.9342 5.44122 58.4293 6.6805C58.9244 7.91978 59.1719 9.19779 59.1719 10.5145C59.1719 11.87 58.9145 13.177 58.3996 14.4357C57.8847 15.675 57.1619 16.7884 56.2312 17.7759C55.3203 18.7441 54.2311 19.509 52.9637 20.0705C51.7162 20.6321 50.3498 20.9129 48.8646 20.9129ZM42.7455 10.4564C42.7455 11.3472 42.8841 12.2089 43.1614 13.0415C43.4386 13.8741 43.8347 14.6196 44.3495 15.278C44.8842 15.917 45.5278 16.4302 46.2803 16.8174C47.0526 17.1853 47.9239 17.3693 48.8943 17.3693C49.8844 17.3693 50.7656 17.1757 51.5379 16.7884C52.3103 16.3817 52.9538 15.8492 53.4687 15.1909C53.9836 14.5131 54.3697 13.7676 54.6272 12.9544C54.9044 12.1217 55.043 11.2891 55.043 10.4564C55.043 9.5657 54.8945 8.71369 54.5975 7.90041C54.3202 7.06777 53.9143 6.33195 53.3796 5.69295C52.8647 5.03458 52.2211 4.52144 51.4488 4.15353C50.6963 3.76625 49.8448 3.57261 48.8943 3.57261C47.8843 3.57261 46.9932 3.77593 46.2209 4.18257C45.4684 4.56985 44.8347 5.09267 44.3198 5.75104C43.805 6.40941 43.4089 7.14523 43.1317 7.95851C42.8742 8.77178 42.7455 9.60443 42.7455 10.4564Z" fill="#816452"/>
<path d="M62.3164 20.7676V0.145228H71.6435C72.6138 0.145228 73.505 0.338865 74.3169 0.72614C75.1486 1.11342 75.8615 1.63624 76.4556 2.29461C77.0695 2.95297 77.5348 3.6888 77.8517 4.50208C78.1883 5.31535 78.3567 6.14799 78.3567 7C78.3567 7.87137 78.1982 8.71369 77.8814 9.52697C77.5843 10.3209 77.1487 11.018 76.5744 11.6183C76.0001 12.2185 75.3268 12.6833 74.5545 13.0124L79.3666 20.7676H74.8516L70.5147 13.8548H66.4156V20.7676H62.3164ZM66.4156 10.3402H71.5544C72.0693 10.3402 72.5247 10.195 72.9208 9.90456C73.3168 9.59474 73.6337 9.1881 73.8713 8.68465C74.109 8.18119 74.2278 7.61964 74.2278 7C74.2278 6.34163 74.0892 5.7704 73.8119 5.28631C73.5347 4.78285 73.1782 4.38589 72.7426 4.09544C72.3267 3.80498 71.8712 3.65975 71.3762 3.65975H66.4156V10.3402Z" fill="#816452"/>
<path d="M96.715 17.2531V20.7676H82.0708V0.145228H96.4477V3.65975H86.17V8.62656H95.0516V11.8797H86.17V17.2531H96.715Z" fill="#816452"/>
<path d="M99.7622 9.90456V5.72199H103V9.90456H99.7622ZM99.7622 20.7676V16.5851H103V20.7676H99.7622Z" fill="#816452"/>
</svg>
