<svg viewBox="0 0 129 24" fill="none" xmlns="http://www.w3.org/2000/svg">
<path d="M9.827 1.05202H13.795L16.306 8.33702L18.848 1.05202H22.785L19.003 11.065L21.793 18.071L28.024 0.990022H32.674L23.87 23H20.181L16.306 13.762L12.462 23H8.773L0 0.990022H4.588L10.85 18.071L13.578 11.065L9.827 1.05202Z" fill="#816452"/>
<path d="M44.7141 23.155C43.1021 23.155 41.6348 22.845 40.3121 22.225C39.0101 21.605 37.8838 20.768 36.9331 19.714C36.0031 18.6394 35.2798 17.4407 34.7631 16.118C34.2464 14.7747 33.9881 13.4004 33.9881 11.995C33.9881 10.5277 34.2568 9.13269 34.7941 7.81002C35.3521 6.46669 36.1064 5.27836 37.0571 4.24502C38.0284 3.19102 39.1651 2.36436 40.4671 1.76502C41.7898 1.14502 43.2364 0.835022 44.8071 0.835022C46.3984 0.835022 47.8451 1.15536 49.1471 1.79602C50.4698 2.43669 51.5961 3.29436 52.5261 4.36902C53.4561 5.44369 54.1794 6.64236 54.6961 7.96502C55.2128 9.28769 55.4711 10.6517 55.4711 12.057C55.4711 13.5037 55.2024 14.8987 54.6651 16.242C54.1278 17.5647 53.3734 18.753 52.4021 19.807C51.4514 20.8404 50.3148 21.6567 48.9921 22.256C47.6901 22.8554 46.2641 23.155 44.7141 23.155ZM38.3281 11.995C38.3281 12.9457 38.4728 13.8654 38.7621 14.754C39.0514 15.6427 39.4648 16.4384 40.0021 17.141C40.5601 17.823 41.2318 18.3707 42.0171 18.784C42.8231 19.1767 43.7324 19.373 44.7451 19.373C45.7784 19.373 46.6981 19.1664 47.5041 18.753C48.3101 18.319 48.9818 17.7507 49.5191 17.048C50.0564 16.3247 50.4594 15.529 50.7281 14.661C51.0174 13.7724 51.1621 12.8837 51.1621 11.995C51.1621 11.0444 51.0071 10.135 50.6971 9.26702C50.4078 8.37836 49.9841 7.59302 49.4261 6.91102C48.8888 6.20836 48.2171 5.66069 47.4111 5.26802C46.6258 4.85469 45.7371 4.64802 44.7451 4.64802C43.6911 4.64802 42.7611 4.86502 41.9551 5.29902C41.1698 5.71236 40.5084 6.27036 39.9711 6.97302C39.4338 7.67569 39.0204 8.46102 38.7311 9.32902C38.4624 10.197 38.3281 11.0857 38.3281 11.995Z" fill="#816452"/>
<path d="M59.9927 23V0.990022H69.7268C70.7394 0.990022 71.6694 1.19669 72.5167 1.61002C73.3847 2.02336 74.1287 2.58136 74.7487 3.28402C75.3894 3.98669 75.8751 4.77202 76.2057 5.64002C76.5571 6.50802 76.7327 7.39669 76.7327 8.30602C76.7327 9.23602 76.5674 10.135 76.2367 11.003C75.9267 11.8504 75.4721 12.5944 74.8727 13.235C74.2734 13.8757 73.5707 14.3717 72.7647 14.723L77.7868 23H73.0748L68.5488 15.622H64.2708V23H59.9927ZM64.2708 11.871H69.6338C70.1711 11.871 70.6464 11.716 71.0598 11.406C71.4731 11.0754 71.8038 10.6414 72.0518 10.104C72.2998 9.56669 72.4238 8.96736 72.4238 8.30602C72.4238 7.60336 72.2791 6.99369 71.9898 6.47702C71.7004 5.93969 71.3284 5.51602 70.8737 5.20602C70.4397 4.89602 69.9644 4.74102 69.4477 4.74102H64.2708V11.871Z" fill="#816452"/>
<path d="M81.849 23V0.990022H89.847C92.2443 0.990022 94.249 1.48602 95.861 2.47802C97.473 3.44936 98.682 4.77202 99.488 6.44602C100.294 8.09936 100.697 9.93869 100.697 11.964C100.697 14.196 100.253 16.1387 99.364 17.792C98.4753 19.4454 97.2146 20.7267 95.582 21.636C93.97 22.5454 92.0583 23 89.847 23H81.849ZM96.388 11.964C96.388 10.538 96.1296 9.28769 95.613 8.21302C95.0963 7.11769 94.3523 6.27036 93.381 5.67102C92.4096 5.05102 91.2316 4.74102 89.847 4.74102H86.127V19.249H89.847C91.2523 19.249 92.4406 18.939 93.412 18.319C94.3833 17.6784 95.117 16.8104 95.613 15.715C96.1296 14.599 96.388 13.3487 96.388 11.964Z" fill="#816452"/>
<path d="M118.302 6.75602C118.157 6.61136 117.888 6.41502 117.496 6.16702C117.124 5.91902 116.659 5.68136 116.101 5.45402C115.563 5.22669 114.974 5.03036 114.334 4.86502C113.693 4.67902 113.042 4.58602 112.381 4.58602C111.223 4.58602 110.345 4.80302 109.746 5.23702C109.167 5.67102 108.878 6.28069 108.878 7.06602C108.878 7.66536 109.064 8.14069 109.436 8.49202C109.808 8.84336 110.366 9.14302 111.11 9.39102C111.854 9.63902 112.784 9.90769 113.9 10.197C115.346 10.5484 116.597 10.9824 117.651 11.499C118.725 11.995 119.542 12.6564 120.1 13.483C120.678 14.289 120.968 15.3637 120.968 16.707C120.968 17.885 120.751 18.8977 120.317 19.745C119.883 20.5717 119.283 21.2434 118.519 21.76C117.754 22.2767 116.886 22.659 115.915 22.907C114.943 23.1344 113.91 23.248 112.815 23.248C111.719 23.248 110.624 23.1344 109.529 22.907C108.433 22.6797 107.379 22.3594 106.367 21.946C105.354 21.512 104.424 20.9954 103.577 20.396L105.468 16.707C105.654 16.893 105.984 17.141 106.46 17.451C106.935 17.7404 107.514 18.04 108.196 18.35C108.878 18.6394 109.622 18.8874 110.428 19.094C111.234 19.3007 112.05 19.404 112.877 19.404C114.034 19.404 114.912 19.2077 115.512 18.815C116.111 18.4224 116.411 17.8644 116.411 17.141C116.411 16.4797 116.173 15.963 115.698 15.591C115.222 15.219 114.561 14.8987 113.714 14.63C112.866 14.3407 111.864 14.0307 110.707 13.7C109.322 13.3074 108.165 12.8734 107.235 12.398C106.305 11.902 105.612 11.282 105.158 10.538C104.703 9.79402 104.476 8.86402 104.476 7.74802C104.476 6.23936 104.827 4.97869 105.53 3.96602C106.253 2.93269 107.224 2.15769 108.444 1.64102C109.663 1.10369 111.017 0.835022 112.505 0.835022C113.538 0.835022 114.509 0.948688 115.419 1.17602C116.349 1.40336 117.217 1.70302 118.023 2.07502C118.829 2.44702 119.552 2.85002 120.193 3.28402L118.302 6.75602Z" fill="#816452"/>
<path d="M125.285 11.406V6.94202H128.664V11.406H125.285ZM125.285 23V18.536H128.664V23H125.285Z" fill="#816452"/>
</svg>
